<?xml version="1.0" encoding="UTF-8" standalone="no"?>
<!-- Created with Inkscape (http://www.inkscape.org/) -->

<svg
   xmlns:dc="http://purl.org/dc/elements/1.1/"
   xmlns:cc="http://creativecommons.org/ns#"
   xmlns:rdf="http://www.w3.org/1999/02/22-rdf-syntax-ns#"
   xmlns:svg="http://www.w3.org/2000/svg"
   xmlns="http://www.w3.org/2000/svg"
   xmlns:sodipodi="http://sodipodi.sourceforge.net/DTD/sodipodi-0.dtd"
   xmlns:inkscape="http://www.inkscape.org/namespaces/inkscape"
   width="110.40923mm"
   height="105.02312mm"
   viewBox="0 0 110.40923 105.02315"
   version="1.1"
   id="svg8"
   inkscape:version="0.92.1 r15371"
   sodipodi:docname="devices.svg">
  <defs
     id="defs2" />
  <sodipodi:namedview
     id="base"
     pagecolor="#ffffff"
     bordercolor="#666666"
     borderopacity="1.0"
     inkscape:pageopacity="0.0"
     inkscape:pageshadow="2"
     inkscape:zoom="2.8284271"
     inkscape:cx="220.16373"
     inkscape:cy="177.04916"
     inkscape:document-units="mm"
     inkscape:current-layer="layer1"
     showgrid="false"
     inkscape:window-width="3000"
     inkscape:window-height="1875"
     inkscape:window-x="-13"
     inkscape:window-y="-13"
     inkscape:window-maximized="1"
     fit-margin-top="5"
     fit-margin-left="5"
     fit-margin-right="5"
     fit-margin-bottom="5" />
  <metadata
     id="metadata5">
    <rdf:RDF>
      <cc:Work
         rdf:about="">
        <dc:format>image/svg+xml</dc:format>
        <dc:type
           rdf:resource="http://purl.org/dc/dcmitype/StillImage" />
        <dc:title></dc:title>
      </cc:Work>
    </rdf:RDF>
  </metadata>
  <g
     inkscape:label="Layer 1"
     inkscape:groupmode="layer"
     id="layer1"
     transform="translate(-24.053541,-106.18221)">
    <g
       transform="translate(1.0380718e-6)"
       id="g5465">
      <g
         transform="rotate(90,50.175186,175.04359)"
         id="g5443">
        <path
           style="fill:#3186bf;fill-opacity:0.80456022;stroke:#000000;stroke-width:0.124;stroke-miterlimit:4;stroke-dasharray:none;stroke-dashoffset:0;stroke-opacity:1"
           d="m 41.827879,127.451 h 2.672497 v 2.004 H 41.827879 L 41.327,128.93555 v -0.95214 z"
           id="rect5434"
           inkscape:connector-curvature="0"
           sodipodi:nodetypes="ccccccc" />
        <rect
           style="fill:#323232;fill-opacity:1;stroke:#8d8985;stroke-width:0.05;stroke-miterlimit:4;stroke-dasharray:none;stroke-dashoffset:0;stroke-opacity:1"
           id="rect5439"
           width="1.3029389"
           height="1.3029389"
           x="42.457077"
           y="127.80153" />
      </g>
    </g>
    <g
       transform="translate(1.0380718e-6)"
       id="g6260">
      <g
         transform="translate(2.6458334,12.127852)"
         id="g5455">
        <rect
           style="fill:#c0bfbf;fill-opacity:1;stroke:#c0bfbf;stroke-width:0.05;stroke-miterlimit:4;stroke-dasharray:none;stroke-dashoffset:0;stroke-opacity:1"
           id="rect5393"
           width="15.167545"
           height="15.234363"
           x="62.875156"
           y="102.82869"
           ry="1.2027129" />
        <path
           inkscape:connector-curvature="0"
           id="path5420"
           d="m 65.088216,117.2296 c -0.01144,-0.006 -0.02898,-0.0217 -0.03896,-0.0351 -0.01809,-0.0243 -0.01817,-0.0271 -0.02044,-0.85089 -0.0017,-0.56215 5.54e-4,-0.83186 0.0068,-0.84335 0.02161,-0.0404 0.04747,-0.0443 0.271537,-0.0414 l 0.209787,0.003 0.06657,0.0329 c 0.08203,0.0406 0.143324,0.10072 0.18141,0.17804 l 0.02806,0.057 0.0025,0.30171 c 0.0022,0.25895 5.54e-4,0.30867 -0.01157,0.35082 -0.03165,0.10968 -0.114129,0.19748 -0.230246,0.2451 -0.03862,0.0158 -0.06976,0.0199 -0.184949,0.0241 l -0.138515,0.005 -0.0043,0.26489 c -0.0047,0.28577 -0.004,0.28166 -0.05305,0.30705 -0.02931,0.0152 -0.05706,0.0156 -0.08463,0.001 z m 0.408448,-0.79317 c 0.04462,-0.0217 0.07598,-0.0573 0.09163,-0.104 0.01318,-0.0394 0.0134,-0.51138 2.41e-4,-0.55925 -0.0059,-0.0215 -0.02368,-0.0483 -0.04692,-0.0707 -0.04709,-0.0453 -0.09572,-0.0571 -0.220501,-0.0533 l -0.0909,0.003 -0.0022,0.3939 c -0.0011,0.21665 -2.16e-4,0.39923 0.0022,0.40574 0.0036,0.009 0.02708,0.0111 0.114799,0.008 0.09315,-0.003 0.116677,-0.007 0.151616,-0.0235 z m 3.648784,0.78894 c -0.0523,-0.0325 -0.05012,0.009 -0.0477,-0.8992 l 0.0022,-0.82933 0.0303,-0.0205 c 0.03011,-0.0203 0.0316,-0.0204 0.2424,-0.0176 l 0.2121,0.003 0.05782,0.0274 c 0.09994,0.0473 0.172294,0.12729 0.206142,0.22777 0.01759,0.0522 0.01828,0.0678 0.01573,0.35422 l -0.0027,0.29961 -0.02681,0.0563 c -0.03542,0.0743 -0.09398,0.13762 -0.159798,0.1727 -0.08022,0.0428 -0.127263,0.0522 -0.261394,0.0523 l -0.119034,1e-4 v 0.25582 c 0,0.28548 -0.0022,0.29783 -0.05657,0.32056 -0.03834,0.016 -0.06348,0.0152 -0.09272,-0.003 z m 0.374952,-0.77354 c 0.03037,-0.007 0.05568,-0.0195 0.0789,-0.0405 0.06453,-0.0583 0.06336,-0.0517 0.06336,-0.35681 v -0.27271 l -0.02163,-0.0386 c -0.02385,-0.0426 -0.06353,-0.0734 -0.111526,-0.0868 -0.01723,-0.005 -0.07709,-0.009 -0.133037,-0.009 l -0.101721,-5e-5 v 0.40111 c 0,0.22061 0.0025,0.4037 0.0058,0.40688 0.0094,0.009 0.171417,0.007 0.219894,-0.004 z m 1.359629,0.77392 c -0.03547,-0.0175 -0.05673,-0.0621 -0.04906,-0.10294 0.0076,-0.0406 0.04622,-0.0697 0.101765,-0.0769 0.06094,-0.008 0.114938,-0.0344 0.141826,-0.0696 0.01349,-0.0177 0.04323,-0.0963 0.07712,-0.20384 l 0.05517,-0.17505 -0.102272,-0.32552 c -0.242308,-0.77124 -0.236595,-0.75182 -0.230645,-0.78353 0.0083,-0.044 0.04808,-0.0744 0.09748,-0.0744 0.03278,0 0.04362,0.005 0.06657,0.0281 0.02421,0.0248 0.04152,0.0734 0.14809,0.41555 0.06637,0.21308 0.123073,0.38741 0.126006,0.38741 0.0029,0 0.05528,-0.15876 0.116322,-0.35278 0.06105,-0.19403 0.118616,-0.37352 0.127936,-0.39888 0.01977,-0.0538 0.05347,-0.0794 0.104812,-0.0794 0.04629,-5e-5 0.0922,0.0449 0.0922,0.0902 0,0.0172 -0.07563,0.27182 -0.168063,0.56574 -0.09243,0.29393 -0.196016,0.62401 -0.230179,0.73352 -0.03417,0.10952 -0.0723,0.21793 -0.08474,0.24093 -0.04662,0.0861 -0.156138,0.16481 -0.259787,0.18661 -0.06262,0.0132 -0.09603,0.0119 -0.130551,-0.005 z m 1.159365,-0.53694 c -0.120857,-0.0227 -0.251412,-0.13746 -0.251412,-0.22109 0,-0.0272 0.006,-0.04 0.02943,-0.0634 0.04842,-0.0484 0.115586,-0.0376 0.164437,0.0264 0.03624,0.0476 0.08369,0.0679 0.148498,0.0638 0.0599,-0.004 0.103604,-0.0296 0.134979,-0.0795 0.02299,-0.0366 0.01925,-0.12046 -0.0071,-0.15736 -0.01002,-0.0141 -0.09461,-0.0776 -0.187946,-0.14116 -0.177617,-0.12096 -0.206289,-0.14805 -0.245687,-0.23215 -0.02061,-0.044 -0.02368,-0.0612 -0.02368,-0.13295 0,-0.0755 0.0025,-0.0873 0.02806,-0.13942 0.03498,-0.071 0.09587,-0.12937 0.173446,-0.16612 0.05445,-0.0258 0.06435,-0.0276 0.153433,-0.0276 0.08602,0 0.100195,0.002 0.146567,0.0241 0.130429,0.0611 0.199717,0.16288 0.160606,0.23596 -0.0224,0.0418 -0.08874,0.0605 -0.132436,0.0373 -0.01041,-0.005 -0.03644,-0.0286 -0.05786,-0.0512 -0.02737,-0.0289 -0.05031,-0.0441 -0.07713,-0.0512 -0.127584,-0.0339 -0.238013,0.0876 -0.180911,0.19905 0.01747,0.0341 0.04095,0.0531 0.188782,0.15266 0.127357,0.0858 0.177878,0.1251 0.205718,0.16015 0.162058,0.20404 0.05941,0.48866 -0.201389,0.55843 -0.0416,0.0111 -0.123906,0.0138 -0.168456,0.005 z m -7.681271,-0.0446 c -0.12926,-0.0426 -0.219836,-0.13784 -0.253365,-0.26657 -0.01623,-0.0624 -0.01875,-0.56319 -0.0032,-0.63648 0.02507,-0.11812 0.116776,-0.22469 0.232664,-0.27036 0.226261,-0.0892 0.484058,0.05 0.527275,0.28451 0.01174,0.0638 0.01255,0.51798 0.0011,0.58828 -0.02033,0.12421 -0.09722,0.22472 -0.214501,0.28046 -0.06149,0.0292 -0.07426,0.032 -0.153635,0.0342 -0.06639,0.001 -0.09815,-10e-4 -0.136247,-0.014 z m 0.170862,-0.18367 c 0.04968,-0.0125 0.103291,-0.0592 0.120879,-0.10525 0.01208,-0.0316 0.01368,-0.0756 0.01149,-0.31881 l -0.0025,-0.28211 -0.02492,-0.0359 c -0.07715,-0.11127 -0.250482,-0.10242 -0.317034,0.0162 l -0.02163,0.0386 v 0.27702 c 0,0.27281 2.76e-4,0.27766 0.02022,0.31809 0.02166,0.044 0.05407,0.0719 0.104313,0.0898 0.03914,0.014 0.0612,0.0145 0.109197,0.003 z m 1.674231,0.18747 c -0.103618,-0.0286 -0.195355,-0.10458 -0.242962,-0.20128 l -0.0288,-0.0585 v -0.33349 -0.33348 l 0.02778,-0.0587 c 0.137042,-0.28932 0.562648,-0.28975 0.705025,-6.8e-4 l 0.02902,0.059 0.0029,0.17903 c 0.0031,0.19147 0.0011,0.20383 -0.0396,0.23045 -0.02022,0.0133 -0.05431,0.0157 -0.274558,0.0194 l -0.251459,0.004 -0.0025,0.0736 c -0.0034,0.0964 0.0098,0.14182 0.05404,0.18601 0.07333,0.0732 0.17918,0.0733 0.266097,1.4e-4 0.03839,-0.0323 0.09203,-0.0302 0.132343,0.005 0.05987,0.0526 0.0341,0.13036 -0.06179,0.18657 -0.08794,0.0516 -0.218574,0.0691 -0.315418,0.0424 z m 0.293444,-0.76875 c 0.003,-0.0924 -0.0077,-0.1355 -0.04391,-0.17679 -0.07392,-0.0842 -0.206799,-0.0843 -0.280668,-1.2e-4 -0.01517,0.0173 -0.03167,0.0461 -0.03667,0.0641 -0.01011,0.0363 -0.01255,0.17794 -0.0032,0.18726 0.0033,0.003 0.08605,0.005 0.183966,0.003 l 0.178019,-0.002 z m 0.36889,0.75186 -0.02943,-0.0294 v -0.5428 -0.54279 l 0.02998,-0.03 0.02998,-0.03 0.215069,0.003 0.215066,0.003 0.06657,0.0329 c 0.08204,0.0406 0.143327,0.10073 0.181409,0.17806 l 0.02806,0.057 0.0025,0.43578 0.0025,0.43578 -0.02974,0.0297 c -0.02546,0.0255 -0.03561,0.0298 -0.07043,0.0298 -0.03473,0 -0.045,-0.004 -0.07012,-0.0294 l -0.02944,-0.0294 -2.77e-4,-0.40126 c -2.77e-4,-0.42941 -0.0017,-0.44381 -0.04433,-0.48949 -0.04585,-0.0491 -0.07946,-0.0587 -0.206345,-0.0588 l -0.116871,-1.1e-4 -0.0043,0.47902 -0.0043,0.47902 -0.02827,0.0253 c -0.02252,0.0201 -0.03634,0.0253 -0.06796,0.0253 -0.03359,0 -0.0442,-0.005 -0.06912,-0.0294 z m 1.60463,0.02 c -0.102945,-0.0243 -0.205608,-0.10791 -0.251585,-0.20496 l -0.02764,-0.0583 v -0.33374 -0.33374 l 0.0326,-0.066 c 0.153446,-0.3105 0.633698,-0.26525 0.720474,0.0679 0.01858,0.0713 0.01853,0.33989 -5.3e-5,0.37584 -0.02551,0.0494 -0.03953,0.0516 -0.311079,0.0516 H 68.38574 l 1.91e-4,0.0887 c 2.18e-4,0.10305 0.01352,0.14216 0.06314,0.18573 0.06924,0.0608 0.157496,0.0602 0.244573,-10e-4 0.05931,-0.0422 0.105901,-0.0425 0.147457,-6.7e-4 0.07388,0.0739 0.0054,0.17317 -0.153447,0.22263 -0.05592,0.0174 -0.159091,0.0207 -0.217475,0.007 z m 0.274826,-0.80076 c 0,-0.10056 -8.04e-4,-0.10578 -0.02362,-0.13553 -0.03554,-0.0465 -0.07747,-0.0687 -0.139241,-0.0734 -0.04685,-0.003 -0.0595,-0.001 -0.100882,0.0208 -0.03849,0.0203 -0.05182,0.0335 -0.07142,0.0711 -0.02155,0.0412 -0.02409,0.0551 -0.02409,0.13029 0,0.0463 0.0027,0.0868 0.006,0.0901 0.0033,0.003 0.08411,0.005 0.179637,0.003 l 0.173687,-0.002 z m 1.319326,0.79032 -0.02942,-0.0199 -0.0022,-0.83506 c -0.0017,-0.61257 2.77e-4,-0.84149 0.0077,-0.85918 0.02842,-0.069 0.128938,-0.0796 0.16945,-0.0178 0.01387,0.0211 0.01609,0.0524 0.01994,0.2839 l 0.0043,0.26012 0.138513,0.005 c 0.144958,0.005 0.178423,0.0126 0.251071,0.0552 0.04449,0.0261 0.109762,0.0954 0.133409,0.1418 0.04182,0.082 0.04405,0.10892 0.04402,0.53356 -3.5e-5,0.37939 -8.05e-4,0.3999 -0.01686,0.42615 -0.0092,0.0152 -0.02457,0.0317 -0.03402,0.0368 -0.02537,0.0135 -0.07723,0.0112 -0.104294,-0.005 -0.04925,-0.0291 -0.04789,-0.017 -0.05257,-0.46647 l -0.0043,-0.41554 -0.02022,-0.0325 c -0.01113,-0.0179 -0.0384,-0.0432 -0.0606,-0.0563 -0.03779,-0.0222 -0.04798,-0.0239 -0.159405,-0.0267 l -0.119034,-0.003 v 0.46875 c 0,0.50489 2.77e-4,0.50039 -0.04516,0.53228 -0.02869,0.0201 -0.08545,0.0171 -0.120208,-0.006 z"
           style="fill:#000005;fill-opacity:1;stroke:#000000;stroke-width:0.0086571;stroke-opacity:1" />
      </g>
      <g
         transform="translate(-0.32871453)"
         id="g5498">
        <rect
           style="fill:#78726c;fill-opacity:1;stroke:none;stroke-width:0.124;stroke-miterlimit:4;stroke-dasharray:none;stroke-dashoffset:0;stroke-opacity:1"
           id="rect5486"
           width="4.1760864"
           height="0.3674956"
           x="75.248634"
           y="129.8484" />
        <rect
           style="fill:#afaba8;fill-opacity:1;stroke:none;stroke-width:0.12375145;stroke-miterlimit:4;stroke-dasharray:none;stroke-dashoffset:0;stroke-opacity:1"
           id="rect5488"
           width="4.1760001"
           height="0.21715648"
           x="75.248672"
           y="130.2159" />
      </g>
    </g>
    <g
       transform="translate(1.0380718e-6)"
       id="g6265">
      <rect
         ry="0"
         y="165.55865"
         x="96.316635"
         height="1.1931368"
         width="0.80243176"
         id="rect5457"
         style="fill:#c02528;fill-opacity:1;stroke:none;stroke-width:0.124;stroke-miterlimit:4;stroke-dasharray:none;stroke-dashoffset:0;stroke-opacity:1" />
      <rect
         ry="0"
         y="130.43306"
         x="75.120415"
         height="0.95927602"
         width="0.70431507"
         id="rect5457-2"
         style="fill:#c02528;fill-opacity:1;stroke:none;stroke-width:0.10416644;stroke-miterlimit:4;stroke-dasharray:none;stroke-dashoffset:0;stroke-opacity:1" />
      <path
         inkscape:connector-curvature="0"
         id="path5500"
         d="m 75.486936,131.39312 v 31.46314 h 21.284417 v 2.70371"
         style="fill:none;stroke:#c02528;stroke-width:0.26458332px;stroke-linecap:butt;stroke-linejoin:miter;stroke-opacity:1" />
    </g>
  </g>
</svg>
